<svg xmlns="http://www.w3.org/2000/svg" width="320" height="320" viewBox="0 0 320 320">
  <rect width="320" height="320" fill="none"/>
  <g fill="none" stroke="#cbd5e1" stroke-width="1.5" stroke-linecap="round" stroke-linejoin="round" opacity="0.1">

    <!-- row 1 -->
    <g transform="translate(14,12)">
      <rect x="2" y="2" width="40" height="26" rx="3"/>
      <path d="M0 34 H44 L40 28 H4 Z"/>
    </g>
    <g transform="translate(100,12)">
      <rect x="12" y="0" width="22" height="40" rx="4"/>
      <path d="M19 5 H27"/>
      <path d="M20 34 H26"/>
    </g>
    <g transform="translate(178,12)">
      <rect x="2" y="2" width="42" height="28" rx="3"/>
      <path d="M16 30 L14 40 H32 L30 30"/>
      <path d="M10 40 H36"/>
    </g>
    <g transform="translate(258,12)">
      <rect x="10" y="8" width="26" height="26" rx="7"/>
      <path d="M16 8 L17 0 H29 L30 8"/>
      <path d="M16 34 L17 42 H29 L30 34"/>
      <path d="M36 16 H40"/>
    </g>

    <!-- row 2 -->
    <g transform="translate(14,92)">
      <rect x="12" y="2" width="22" height="38" rx="11"/>
      <path d="M23 7 V18"/>
    </g>
    <g transform="translate(96,92)">
      <rect x="0" y="8" width="48" height="26" rx="4"/>
      <path d="M6 16 h6 M16 16 h6 M26 16 h6 M36 16 h6 M6 24 h6 M16 24 h22 M40 24 h2"/>
    </g>
    <g transform="translate(178,92)">
      <rect x="6" y="0" width="34" height="44" rx="4"/>
      <circle cx="23" cy="38" r="2"/>
    </g>
    <g transform="translate(258,92)">
      <path d="M6 28 V22 a18 18 0 0 1 36 0 V28"/>
      <rect x="2" y="26" width="10" height="16" rx="3"/>
      <rect x="36" y="26" width="10" height="16" rx="3"/>
    </g>

    <!-- row 3 -->
    <g transform="translate(14,172)">
      <rect x="10" y="0" width="28" height="44" rx="3"/>
      <path d="M16 8 H32 M16 14 H32"/>
      <circle cx="18" cy="34" r="2"/>
    </g>
    <g transform="translate(96,172)">
      <rect x="8" y="8" width="28" height="28" rx="3"/>
      <rect x="16" y="16" width="12" height="12" rx="2"/>
      <path d="M14 8 V2 M22 8 V2 M30 8 V2 M14 36 V42 M22 36 V42 M30 36 V42 M8 14 H2 M8 22 H2 M8 30 H2 M36 14 H42 M36 22 H42 M36 30 H42"/>
    </g>
    <g transform="translate(178,172)">
      <rect x="2" y="8" width="44" height="30" rx="4"/>
      <circle cx="24" cy="23" r="9"/>
      <rect x="14" y="3" width="12" height="6" rx="2"/>
    </g>
    <g transform="translate(258,172)">
      <rect x="2" y="2" width="40" height="26" rx="3"/>
      <path d="M0 34 H44 L40 28 H4 Z"/>
    </g>

    <!-- row 4 -->
    <g transform="translate(14,250)">
      <rect x="12" y="0" width="22" height="40" rx="4"/>
      <path d="M19 5 H27"/>
      <path d="M20 34 H26"/>
    </g>
    <g transform="translate(96,250)">
      <circle cx="22" cy="15" r="13"/>
      <path d="M16 30 H28 M17 35 H27 M19 39 H25"/>
    </g>
    <g transform="translate(178,250)">
      <rect x="2" y="2" width="42" height="28" rx="3"/>
      <path d="M16 30 L14 40 H32 L30 30"/>
      <path d="M10 40 H36"/>
    </g>
    <g transform="translate(258,250)">
      <rect x="0" y="8" width="48" height="26" rx="4"/>
      <path d="M6 16 h6 M16 16 h6 M26 16 h6 M36 16 h6 M6 24 h6 M16 24 h22 M40 24 h2"/>
    </g>

  </g>
</svg>
