<svg xmlns="http://www.w3.org/2000/svg" viewBox="0 0 1200 675">
  <rect width="1200" height="675" fill="#f8fafc"/>
  <rect x="220" y="160" width="560" height="330" rx="28" fill="#111827"/>
  <rect x="250" y="190" width="500" height="250" rx="14" fill="#1f2937"/>
  <path d="M270 225h240M270 270h190M270 315h300M270 360h150" stroke="#38bdf8" stroke-width="10" stroke-linecap="round" opacity=".85"/>
  <path d="M270 250h150M270 295h260M270 340h210M270 385h280" stroke="#94a3b8" stroke-width="8" stroke-linecap="round" opacity=".7"/>
  <path d="M430 490h140l24 70H406z" fill="#111827"/><rect x="360" y="560" width="300" height="24" rx="12" fill="#111827"/>
  <rect x="800" y="210" width="230" height="310" rx="20" fill="#fefefe" stroke="#e5e7eb" stroke-width="8"/>
  <rect x="836" y="250" width="156" height="110" rx="10" fill="#dbeafe"/>
  <path d="M846 390h136M846 420h100M846 450h118" stroke="#1f2937" stroke-width="10" stroke-linecap="round"/>
  <path d="M970 520c30-58 88-42 88-42s-6 64-74 70" fill="#22c55e" opacity=".8"/>
  <path d="M955 515c-35-48-86-22-86-22s23 58 86 58" fill="#16a34a" opacity=".8"/>
  <rect x="915" y="540" width="110" height="56" rx="14" fill="#e5e7eb"/>
</svg>
